<svg xmlns="http://www.w3.org/2000/svg" fill="none" viewBox="0 0 217 103"><title>University of Salford</title><path d="m110.38 88.04v-9.08c0-1.01.04-1.64.09-2.59h-.04c-.32.77-.66 1.43-1 2.14l-2.67 5.68h-1.45l-2.64-5.68c-.32-.71-.66-1.43-1-2.14h-.04c.04.96.08 1.56.08 2.59v9.08h-1.71v-13.96h2.27l2.89 6.3c.28.6.56 1.28.83 1.88h.04c.26-.62.58-1.3.86-1.92l2.93-6.26h2.26v13.96h-1.71zm10.07-10.22c-.24-.75-.41-1.47-.56-2.29h-.19c-.17.83-.32 1.54-.56 2.29l-1.33 4.08h3.97l-1.32-4.08zm3.29 10.22-1.45-4.57h-5l-1.48 4.57h-1.75l4.57-13.96h2.39l4.57 13.96h-1.84zm11.15 0-4.92-10.02c-.34-.7-.77-1.54-1.13-2.37h-.04c.06.92.09 1.94.09 2.91v9.47h-1.62v-13.96h2.48l4.87 9.76c.34.68.79 1.63 1.13 2.39h.04c-.08-1.11-.09-2.2-.09-3.06v-9.08h1.65v13.96zm10.45.27c-3.2 0-5.64-1.18-5.64-6.09v-2.31c0-4.91 2.44-6.05 5.64-6.05 1.28 0 2.67.23 3.23.32v1.41c-.86-.08-2.2-.19-3.23-.19-2.63 0-3.91 1.07-3.91 4.51v2.31c0 3.44 1.28 4.53 3.91 4.53 1.03 0 2.37-.1 3.23-.17v1.41c-.56.09-1.95.32-3.23.32zm14.02-.27v-6.6h-6.99v6.6h-1.73v-13.96h1.73v5.81h6.99v-5.81h1.73v13.96zm4.55 0v-13.96h8.27v1.54h-6.54v4.4h6.14v1.56h-6.14v4.94h6.54v1.52zm25.67-12.42v12.42h-1.73v-12.42h-4.3v-1.54h10.34v1.54zm5.9 12.42v-13.96h8.27v1.54h-6.54v4.4h6.15v1.56h-6.15v4.94h6.54v1.52zm13.91-12.42h-1.56v5.47h1.62c2.73 0 4.02-.54 4.02-2.74 0-2.33-1.37-2.73-4.08-2.73zm4.66 12.43-3.29-5.45c-.38.02-.9.02-1.32.02h-1.62v5.43h-1.73v-13.96h3.29c3.23 0 5.83.68 5.83 4.27 0 2.24-1 3.33-2.61 3.89l3.5 5.81h-2.05zm-33.96-7.43-2.41-1.05c-1.49-.66-1.88-1.26-1.88-2.33 0-1.45 1.03-1.88 2.88-1.88 1.09 0 2.35.1 3.23.19v-1.42c-.76-.13-2.03-.26-3.29-.26-3.06 0-4.57 1.09-4.57 3.38 0 1.94 1.02 2.95 2.88 3.78l2.39 1.07c1.49.68 1.9 1.32 1.9 2.42 0 1.64-.96 2.29-2.86 2.29-1.58 0-2.88-.11-3.98-.24v1.35c.51.13 2.29.39 3.98.39 3.08 0 4.62-1.37 4.62-3.8 0-1.96-.94-3.03-2.89-3.89z" fill="#ce181e"/><path d="m107.44 67.68c-2.4 0-4.92-.53-7.13-1.69-.19-.1-.28-.16-.28-.39l-.04-3.06c0-.19.12-.48.35-.39 3 1.27 3.97 1.53 5.98 1.62 2.79.12 5.81-.62 5.81-3.48 0-5.65-12.18-4.34-12.18-12.89 0-5.96 5.63-7.01 10.36-7.01 2.33 0 5.08.78 6.31 1.34.17.08.25.15.25.31v.08l-.42 2.98c-.07.15-.14.23-.28.23-.04 0-.04.01-.07 0-1.98-.66-3.42-1.04-4.92-1.11-2.71-.13-5.36.43-5.36 2.91 0 4.45 12.21 3.91 12.21 12.16 0 6.5-4.91 8.4-10.61 8.4zm25.52-10.92c0-.23-.07-.31-.35-.31h-2.64c-2.75 0-4.21.73-4.21 3.41 0 2.86 1.5 3.75 4.21 3.75h2.61c.31 0 .38-.11.38-.39v-6.47zm5.71 9.49c0 .27-.07.46-.42.54-2.64.35-5.92.85-8.91.85-5.5 0-9.43-1.67-9.43-7.59s3.83-7.2 8.24-7.2c1.36 0 3.62.27 4.73.42 0-3.48-1.22-4.88-5.22-4.88-1.32 0-3.13.16-4.63.27h-.1c-.25 0-.31-.12-.38-.35l-.31-2.79v-.08c0-.15.1-.23.28-.31 1.81-.23 4.84-.46 7.06-.46 5.53 0 9.08 2.21 9.08 8.4v13.17zm8.74.92h-5.11c-.25 0-.32-.12-.32-.38v-28.96c0-.23.07-.34.32-.42l5.08-.39c.24 0 .38.12.38.39v29.39c0 .27-.07.38-.35.38zm25.02-18.97c-3.3 0-4.49 2.17-4.49 8.09 0 5.61 1.29 7.7 4.49 7.7s4.45-2.17 4.45-7.7c0-5.96-1.18-8.09-4.45-8.09zm0 19.4c-6.47 0-10.3-3.79-10.3-11.27 0-8.13 4.07-11.62 10.3-11.62s10.26 3.41 10.26 11.62c0 7.43-3.79 11.27-10.26 11.27zm36.75-18.93c-.94-.08-1.77-.16-2.81-.16-3.27 0-5.05 2.25-5.05 7.55s1.95 7.55 5.39 7.55c.8 0 1.81-.11 2.47-.23.21-.08.28-.23.28-.43v-13.86c0-.23-.11-.39-.28-.43zm5.6 18.08c-2.47.43-5.01.89-8.07.89-6.58 0-11.31-3.02-11.31-11.89s4.42-11.11 9.36-11.11c1.43 0 3.69.31 4.45.39h.07c.14 0 .24-.12.24-.31v-6.77c0-.27.14-.43.38-.51l4.91-.38c.28.04.42.27.42.5v28.57c0 .31-.14.58-.45.62zm-19.73-18.28c-1.49.04-2.61.15-4.17.27-.21 0-.31.16-.31.35v17.65c0 .31-.1.43-.35.43h-5.08c-.21 0-.35-.12-.35-.38v-20.52c0-.27.1-.42.35-.5 2.37-.35 7.2-.77 9.98-.89.21 0 .32.16.32.39v2.86c0 .19-.14.35-.39.35zm-31.91-15.42c-1.19 0-2.44-.26-3.54-.84-.09-.05-.14-.08-.14-.19l-.02-1.52c0-.1.06-.24.17-.19 1.49.63 1.97.75 2.97.8 1.24.06 3.49-.12 3.49-1.73 0-3.18-6.65-2.15-6.65-6.39 0-2.96 2.8-3.48 5.14-3.48 1.16 0 2.28.26 2.89.53.08.04.12.08.12.15v.04l-.21 1.48c-.03.08-.07.11-.14.11-.02 0 .02 0 0 0-1-.3-1.4-.4-2.21-.46-1.46-.11-3.44.05-3.46 1.48-.04 2.49 6.65 1.94 6.65 6.03 0 3.23-2.25 4.17-5.08 4.17zm-52.02-5.92c0 3.89-2.23 5.93-5.56 5.93s-5.56-2.06-5.56-5.88v-9.8c0-.16.08-.26.21-.26h1.79c.12 0 .19.09.19.26v9.54c0 2.94 1.08 4.08 3.41 4.08 2.16 0 3.31-1.16 3.31-4.05v-9.57c0-.16.06-.26.21-.26h1.79c.15 0 .23.07.23.23l-.02 9.77zm12.33 5.75h-1.81c-.15 0-.19-.04-.19-.23v-7.9c0-2.55-1.14-3.27-3.39-3.27-.71 0-1.75.09-2.41.16-.16 0-.19.05-.19.23v10.77c0 .19-.06.23-.21.23h-1.81c-.14 0-.21-.04-.21-.23v-12.28c0-.18.04-.23.23-.28 1.67-.28 3.54-.53 4.68-.53 3.41 0 5.49 1.11 5.49 5.03v8.06c0 .16-.04.23-.19.23zm4.5 0h-1.81c-.13 0-.19-.07-.19-.23v-12.76c0-.14.06-.23.21-.23h1.77c.17 0 .21.07.21.21v12.79c0 .16-.04.23-.18.23zm.18-15.09c0 .16-.04.23-.18.23h-1.81c-.11 0-.19-.07-.19-.26v-1.9c0-.16.06-.23.19-.23h1.81c.14 0 .18.07.18.23v1.92zm11.91 1.86h-1.79c-.13 0-.17.04-.21.16l-2.9 10.98c-.03.1-.08.14-.14.15-.06-.01-.11-.05-.13-.13l-2.8-10.98c-.04-.14-.06-.18-.21-.18h-1.96c-.14 0-.21.04-.21.11 0 .03.01.03.02.07l3.79 12.81c.04.16.08.23.23.23h2.41c.17 0 .25-.07.29-.25l3.75-12.76s.02-.07.02-.09c0-.07-.06-.11-.16-.11zm5.97 1.76c-2.04 0-3.35 1.25-3.35 3.82 0 .19.04.23.19.23h6.45c.15 0 .23-.02.23-.21-.06-2.6-1.44-3.85-3.52-3.85zm5.56 5.88h-8.7c-.13 0-.19.02-.19.23.08 2.92 1.85 3.57 4.41 3.57.96 0 2.02-.09 3.14-.19.08 0 .19.02.19.16v.05l-.19 1.41c-.04.16-.1.16-.25.21-1.02.16-2.27.3-3.6.3-3.56 0-5.95-1.64-5.95-6.81s2.58-6.67 5.7-6.67c3.81 0 5.62 2.36 5.62 7.5 0 .16-.06.23-.19.23zm20.52 5.59h-1.81c-.13 0-.19-.07-.19-.23v-12.76c0-.14.06-.23.21-.23h1.77c.17 0 .21.07.21.21v12.79c0 .16-.04.23-.19.23zm.19-15.09c0 .16-.04.23-.19.23h-1.81c-.11 0-.19-.07-.19-.26v-1.9c0-.16.06-.23.19-.23h1.81c.15 0 .19.07.19.23v1.92zm8.83 14.79c-.05.14-.11.18-.25.21-.9.12-1.42.21-2.15.21-1.97 0-2.85-.98-2.85-3.31v-8.22c0-.16-.06-.23-.21-.23h-1.41c-.15 0-.21-.09-.21-.25v-1.11c0-.14.06-.21.21-.21h1.43c.12 0 .19-.07.19-.24v-3.03c0-.16.04-.23.21-.28l1.77-.21c.14 0 .23.07.23.23v3.29c0 .16.04.24.21.24h2.24c.17 0 .21.07.21.23v1.11c0 .14-.04.21-.21.21h-2.24c-.15 0-.21.09-.21.26v7.6c0 1.34.19 1.9 1.75 1.9h1.27c.19 0 .21.09.21.23l-.18 1.39zm-22.89-11.09c-.92 0-1.6.07-2.5.14-.17.02-.23.09-.23.23v10.79c0 .16-.04.23-.19.23h-1.81c-.1 0-.18-.07-.18-.23v-12.27c0-.16.06-.26.21-.3 1.41-.21 3.04-.47 4.72-.53.13 0 .19.09.19.23v1.53c0 .11-.06.18-.21.18zm34.79-1.84h-1.85c-.11 0-.19.07-.21.16l-2.75 10.98c-.03.11-.07.15-.13.16-.07-.01-.14-.06-.17-.18l-3.12-10.95c-.04-.14-.1-.16-.23-.16h-1.94c-.1 0-.19.03-.19.13v.06l3.6 12.24c.22.64.81.79.99.8h.05c.13 0 .16.09.16.21 0 0-.01.17-.15.51-.45 1.23-1.82 2.9-2.34 3.45-.02.05-.04.09-.04.12 0 .09.08.16.16.16h1.96c.12 0 .23-.07.29-.16 1.69-1.85 2.81-4.89 3.41-7.18l2.62-10.14v-.02c0-.09-.06-.16-.15-.16zm-31.96 16.64c-1.02 0-7.38.78-8.07 8.35-.03.31-.17.43-.42.43h-2.4c-.24 0-.31.12-.31.39v2.67c0 .27.07.39.35.39l2.23-.04c.28 0 .35.19.35.46v17.77c0 .31.14.46.38.46h5.04c.24 0 .35-.16.35-.46v-17.77c0-.31.11-.43.35-.43h2.82c.24 0 .35-.15.35-.39v-2.67c0-.23-.11-.39-.38-.39h-2.89c-.32 0-.35-.12-.35-.43.31-2.58 1.86-4.52 3.9-5.38 0 0 .04-.02.1-.06.02-.01.04-.02.05-.03a.12.12 0 0 0 .05-.05s.02-.02.02-.03.01-.03.02-.04v-.01c.02-.06 0-.14-.04-.25 0 0-.01-.03-.04-.08l-1.05-2.11c-.15-.18-.29-.3-.43-.3zm41.32-14.94c-2.07 0-3.77 1.24-3.77 5.05 0 3.32 1.55 4.73 3.81 4.73s3.84-1.45 3.84-4.73c0-3.83-1.74-5.05-3.88-5.05zm0 11.73c-3.08 0-5.99-2.17-5.99-6.69s2.6-6.87 6.01-6.87 6.03 2.12 6.03 6.87c0 4.47-2.81 6.69-6.06 6.69zm12.33-17.89c-.59 0-3.82.87-4.12 4.21-.02.18-.1.25-.25.25h-1.42c-.14 0-.19.07-.19.24v1.11c0 .16.04.23.21.23h1.32c.17 0 .21.12.21.28v11.1c0 .18.08.28.23.28h1.79c.14 0 .21-.09.21-.28v-11.14c0-.18.06-.25.21-.25h2.14c.14 0 .21-.09.21-.23v-1.09c0-.14-.06-.24-.23-.24h-2.13c-.19 0-.19-.06-.19-.25.25-1.52 1.33-2.58 2.58-3.07.04-.02.1-.08.03-.2l-.43-.85c-.05-.08-.11-.08-.17-.08z" fill="#231f20"/><path d="m80.11 0h2v103h-2zm-49.68 88.21s6.53-3.2 13.44-10.08c-.02-.02-.03-.05-.05-.08-.19-.25-.42-.48-.68-.67a3.34 3.34 0 0 0 -4.66.74c-1.51 2.09-1.05 3.12-2.29 4.83-.51.7-1.49.85-2.19.35-.7-.51-.85-1.49-.35-2.19 1.24-1.71 2.36-1.58 3.88-3.67a3.34 3.34 0 0 0 -.74-4.66c-.27-.2-.57-.35-.87-.45-1.72-.59-3.57-.92-5.49-.92s-3.76.33-5.48.92a3.33 3.33 0 0 0 -1.61 5.11c1.51 2.09 2.64 1.96 3.88 3.67a1.568 1.568 0 0 1 -2.54 1.84c-1.24-1.71-.77-2.74-2.29-4.83a3.34 3.34 0 0 0 -4.66-.74c-.27.2-.49.42-.68.67-.02.03-.04.05-.06.08 6.92 6.89 13.44 10.08 13.44 10.08z" fill="#ce181e"/><path d="m34.96 85.35c-.93-1.49-2.56-2.49-4.45-2.49s-3.57 1.03-4.49 2.56c2.65 1.78 4.41 2.65 4.41 2.65s1.81-.89 4.53-2.73z" fill="#f3c716"/><path d="m59.63 46.01c.09-.84.16-1.69.21-2.55l-5.09-3.08c-1.3-.78-3.01-.38-4.08.88l-4.1-1.55c.02-1.67-1.02-3.12-2.54-3.37l-8.16-1.32c-1.47-.24-2.88.73-3.42 2.24h-4.3c-.55-1.51-1.96-2.48-3.42-2.24l-8.16 1.32c-1.51.24-2.56 1.69-2.54 3.37l-4.1 1.55c-1.07-1.25-2.78-1.66-4.08-.88l-4.84 2.93c.05.87.12 1.71.21 2.55l5.82-3.52s.1-.02.15-.04c-.57.29-.36.87-.19 1.34.17.45.35.92.83.92.08 0 .17-.02.27-.05l-6.54 3.95c.12.8.27 1.59.43 2.36.14-.06.28-.11.4-.19l7.07-4.28c.98-.59 1.46-1.71 1.38-2.88l3.96-1.5c.7.92 1.77 1.44 2.88 1.26l8.16-1.32c1.16-.19 2.04-1.09 2.38-2.25h4.15c.34 1.16 1.22 2.07 2.38 2.26l8.16 1.32c1.11.18 2.18-.34 2.88-1.26l3.96 1.5c-.08 1.17.4 2.29 1.38 2.88l7.07 4.28c.21.13.43.21.65.28.16-.76.3-1.52.43-2.31l-6.78-4.1c.09.03.18.05.27.05.49 0 .66-.47.83-.92.18-.47.39-1.05-.19-1.34.05.01.11.01.15.04zm-42.06-5.07.12-.04c.72-.27.47-.92.29-1.4-.17-.45-.35-.92-.83-.92-.09 0-.19.02-.29.06.02 0 .04-.03.06-.03l7.96-1.29c-.46.17-.46.72-.46 1.15 0 .51 0 1.21.77 1.21h.22l-7.84 1.27zm25.87-2.36c-.49 0-.66.47-.83.92-.18.48-.43 1.13.29 1.4l.12.04-7.84-1.27h.23c.77 0 .77-.7.77-1.21 0-.45 0-.99-.46-1.15l7.95 1.29s.04.03.06.03c-.1-.04-.2-.06-.29-.06z" fill="#a7a9ac"/><g fill="#231f20"><path d="m31.34 82.37c.17.03.34.06.5.1-.17-.04-.33-.08-.5-.1zm-.2-.03a5.519 5.519 0 0 1 0 0zm2.74 1.09c-.14-.1-.28-.2-.43-.29.15.09.29.19.43.29zm1.81-9.79c-.23-.12-.46-.19-.73-.23-.22-.03-.5 0-.73.02-.47.08-.91.23-1.33.38-.84.31-1.66.63-2.48.63s-1.64-.32-2.48-.63c-.42-.15-.86-.3-1.33-.38s-1.01-.04-1.45.21c-.44.24-.78.66-.92 1.14-.13.47-.08 1 .17 1.42.52.77 1.23 1.36 2.01 1.8l-.01-.01h.01c.27.18.56.38.86.62s-.66-.63-1.04-1.18-.74-1.93.52-1.62 1.47.79 3.67.79 2.4-.48 3.67-.79.9 1.08.52 1.62c-.38.55-1.04 1.18-1.04 1.18.31-.24.6-.44.86-.62.78-.44 1.48-1.03 2.01-1.8.51-.85.17-2.09-.76-2.56z"/><path d="m30.43 82.29c.18 0 .36.02.54.04-.01-.52-.01-1.04-.05-1.56-.06-.81-.15-1.63-.33-2.44-.19.81-.3 1.62-.37 2.44-.05.51-.06 1.03-.08 1.54.09 0 .19-.01.28-.01zm12.08-11.11c-1.18 2.07-2.47 4.06-3.81 6.02-.19.17-.37.36-.52.58-.34.47-.58.89-.77 1.28-.19.27-.38.55-.58.83-.76 1.05-1.53 2.1-2.31 3.13-.11-.04-.22-.07-.32-.14a1.17 1.17 0 0 1 -.3-.33c.72-1.07 1.45-2.13 2.2-3.18l.15-.21c.48-.38 1-.87 1.56-1.64.28-.39.48-.82.59-1.27 1.31-1.73 2.66-3.43 4.1-5.07-1.64 1.07-3.25 2.17-4.85 3.29.04.14.08.27.11.41.13.79-.06 1.57-.53 2.22-.76 1.05-1.42 1.51-2.05 1.96-.59.42-1.2.85-1.83 1.71-.53.73-.47 1.72.1 2.38.25.15.49.33.71.52.82.35 1.77.1 2.31-.63.62-.86.85-1.57 1.06-2.27.23-.74.47-1.51 1.23-2.56.51-.7 1.27-1.11 2.07-1.21.58-1.93 1.15-3.87 1.68-5.82zm-17.54 12.38c.53.31 1.16.33 1.72.1.23-.19.47-.36.72-.52.56-.66.62-1.64.09-2.37-.62-.86-1.24-1.29-1.82-1.71-.64-.45-1.29-.91-2.05-1.96-.47-.64-.66-1.43-.53-2.22.02-.14.07-.28.11-.41-1.6-1.11-3.21-2.22-4.85-3.29a90.09 90.09 0 0 1 4.11 5.07c.11.45.31.88.59 1.27.56.77 1.08 1.26 1.55 1.63.05.07.1.14.16.21.75 1.05 1.48 2.11 2.2 3.18-.08.12-.18.24-.3.33-.1.07-.21.11-.32.14-.78-1.03-1.55-2.08-2.31-3.13-.19-.27-.38-.54-.57-.82a8.21 8.21 0 0 0 -.77-1.29c-.16-.21-.33-.41-.53-.58-1.34-1.96-2.63-3.95-3.81-6.02.53 1.95 1.1 3.89 1.68 5.82.4.05.8.17 1.16.39.36.21.66.48.9.82.76 1.05 1 1.82 1.23 2.56.21.69.43 1.41 1.06 2.27.16.22.35.4.58.53z"/><path d="m56.66 31.38-2.84 6.14a55.573 55.573 0 0 0 -13.64-4.28l1.18-6.66c-3.58-.63-7.26-.95-10.92-.95-1.69 0-3.39.07-5.07.2l.54 6.74a55.4 55.4 0 0 0 -13.98 2.96l-2.25-6.38a61.212 61.212 0 0 0 -8.77 3.88v6.91c0 1.28.06 2.52.14 3.74l5.03-3.04c.37-.22.78-.34 1.23-.34.72 0 1.43.31 1.99.83l-1.64.62a1.35 1.35 0 0 0 -.35-.06c-.19 0-.36.05-.51.13l-5.62 3.4c.12 1.22.26 2.43.45 3.59l6.88-4.16c.12-.07.2-.18.28-.29l1.61-.61c0 .13 0 .26-.03.39-.13.74-.54 1.35-1.13 1.71l-7.07 4.28c-.08.05-.17.07-.26.11 1.65 8.49 5.18 15.44 9.24 20.95.58.18 1.17.36 1.76.53 0 .01-.02.03-.03.04l.03-.03-9.84-19.18 16.03 14.4c-.96-3.4-1.78-6.86-1.55-10.66 0-3.73 1.03-7.81-1.57-10.66 3.84 2.42 4.04 6.09 5.28 9.39 1.01 3.39 3.06 6.42 5.26 9.4h-.03.03l3.92-21.19 3.92 21.19c1.32-3.28 2.78-6.52 5.28-9.39 2.27-2.96 5.58-5.56 5.26-9.4 1.56 4.26-.51 7.28-1.55 10.66-1.27 3.3-1.49 6.95-1.57 10.66s16.03-14.4 16.03-14.4l-9.82 19.18s.02.03.03.04c0-.01-.02-.03-.03-.04.77-.45 1.55-.9 2.34-1.33 3.8-5.36 7.07-12.01 8.64-20.05-.17-.06-.35-.12-.51-.22l-7.07-4.28c-.6-.36-1-.97-1.13-1.71-.02-.13-.03-.26-.03-.39l1.59.6c.08.12.18.23.3.3l7.07 4.28s.04.01.05.02c.19-1.16.34-2.36.46-3.58l-5.88-3.55a.969.969 0 0 0 -.51-.13c-.12 0-.23.02-.35.06l-1.64-.62c.56-.52 1.27-.83 1.99-.83.44 0 .86.11 1.23.34l5.28 3.19c.09-1.27.15-2.56.15-3.89v-6.91c-1.08-.58-2.18-1.14-3.29-1.65zm-21.23 3.93c.12 0 .25 0 .37.03l8.16 1.32c.69.11 1.29.52 1.69 1.16.25.4.4.87.45 1.35l-1.65-.62c-.18-.27-.42-.46-.72-.51l-8.16-1.32c-.26-.04-.52.04-.76.2h-1.79c.49-.96 1.4-1.61 2.4-1.61zm-20.49 2.51c.4-.64 1-1.05 1.69-1.16l8.16-1.32c.12-.02.25-.03.37-.03 1 0 1.91.65 2.4 1.61h-1.78c-.24-.16-.5-.25-.76-.2l-8.16 1.32c-.29.05-.54.24-.72.51l-1.65.62c.05-.49.2-.95.45-1.35zm-6.87 6.4c-.09.04-.17.05-.25.05-.34 0-.48-.3-.67-.8-.23-.6-.33-.98.19-1.18l9.56-3.61c.09-.04.17-.05.25-.05.34 0 .48.3.67.8.21.57.32.98-.19 1.17l-9.56 3.61zm17.69-2.86-8.16 1.32c-.12.02-.25.03-.37.03-.69 0-1.34-.32-1.84-.84l1.59-.6c.09.02.17.04.26.04.05 0 .1 0 .14-.01l8.16-1.32c.16-.03.3-.11.44-.21h1.69c-.35.83-1.04 1.45-1.91 1.59zm-.58-1.99c-.55 0-.59-.43-.59-1.03s.04-1.03.59-1.03h10.22c.55 0 .59.39.59 1.03 0 .6-.04 1.03-.59 1.03zm17.8 3.31-8.16-1.32c-.69-.11-1.29-.52-1.69-1.16-.09-.14-.16-.28-.22-.43h1.67c.14.11.29.19.46.21l8.16 1.32s.09.01.14.01c.09 0 .18-.02.26-.04l1.57.6c-.59.61-1.39.94-2.2.81zm10.26-.39c.52.2.42.57.19 1.18-.19.5-.33.8-.67.8-.08 0-.16-.02-.25-.05l-9.56-3.61c-.51-.19-.4-.61-.19-1.17.19-.5.33-.8.67-.8.08 0 .16.02.25.05l9.56 3.61z"/><path d="m44.1 77.7c-.22-.29-.47-.53-.75-.74a3.693 3.693 0 0 0 -5.17.82c-.83 1.14-1.1 2.01-1.33 2.77-.21.66-.4 1.29-.96 2.05-.39.54-1.14.66-1.68.27s-.66-1.15-.27-1.69c.56-.76 1.09-1.14 1.66-1.54.65-.46 1.39-.98 2.22-2.13.58-.8.82-1.78.66-2.75-.16-.98-.68-1.83-1.48-2.41-.1-.07-.2-.14-.3-.2-.21-.12-.43-.23-.66-.3-1.81-.62-3.69-.94-5.6-.94s-3.79.32-5.6.94a3.66 3.66 0 0 0 -2.45 2.91c-.16.97.08 1.95.66 2.75.83 1.14 1.57 1.66 2.22 2.13.57.4 1.1.78 1.66 1.54.39.54.27 1.3-.27 1.68-.52.38-1.3.26-1.68-.27-.55-.76-.75-1.39-.95-2.06-.24-.76-.5-1.63-1.33-2.77-.3-.42-.68-.76-1.12-1.02a3.704 3.704 0 0 0 -4.8.94c0 .01-.02.02-.02.03.17.17.34.35.52.52.03-.04.05-.08.08-.11.18-.23.38-.43.61-.59.96-.7 2.24-.76 3.26-.16.36.21.66.48.9.82.76 1.05 1 1.82 1.23 2.56.21.69.43 1.41 1.06 2.27.16.22.35.4.58.53.53.31 1.16.33 1.72.1.23-.19.47-.36.72-.52.56-.66.62-1.64.09-2.37-.62-.86-1.24-1.29-1.82-1.71-.64-.45-1.29-.91-2.05-1.96-.47-.64-.66-1.43-.53-2.22s.55-1.48 1.19-1.94c.24-.17.5-.31.78-.41 1.73-.6 3.54-.9 5.36-.9 1.83 0 3.64.3 5.37.9.27.09.53.23.78.4.64.47 1.07 1.16 1.19 1.94.13.79-.06 1.57-.53 2.22-.76 1.05-1.42 1.51-2.05 1.96-.59.42-1.2.85-1.83 1.71-.53.73-.47 1.72.1 2.38.25.15.49.33.71.52.82.35 1.77.1 2.31-.63.62-.86.85-1.57 1.06-2.27.23-.74.47-1.51 1.23-2.56.96-1.33 2.8-1.65 4.16-.66.23.16.43.36.61.59.03.04.05.08.08.11l.52-.52c0-.01-.02-.02-.03-.04z"/><path d="m21.61 80.82c.4.53.8 1.35.8 1.35-.14-.37-.24-.71-.33-1.01-.18-.88-.52-1.73-1.1-2.47-.33-.36-.81-.58-1.3-.59-.5-.02-1 .17-1.37.53-.11.11-.2.23-.29.36.64.61 1.28 1.19 1.9 1.74.15-1.15 1.29-.42 1.69.09zm20.93-2.21a1.9 1.9 0 0 0 -1.37-.52c-.49.02-.97.23-1.3.6-.57.74-.91 1.59-1.09 2.47v-.02.01c-.09.31-.19.65-.33 1.01 0 0 .4-.83.8-1.36.39-.52 1.54-1.25 1.69-.07.63-.55 1.26-1.13 1.91-1.74-.09-.14-.18-.27-.3-.38zm-15.59 5.99a1.153 1.153 0 1 1 .82 1.97c.67.41 1.22.73 1.65.98.19-.36.56-.62 1-.62s.81.26 1 .62c.43-.24.98-.56 1.65-.98-.29 0-.58-.11-.81-.34a1.153 1.153 0 0 1 1.63-1.63c.35.35.42.88.22 1.3.32-.21.65-.43 1-.67a5.572 5.572 0 0 0 -1.92-1.91 5.52 5.52 0 0 0 -2.78-.75c-1.47 0-2.85.57-3.9 1.61-.32.32-.58.68-.8 1.05.35.24.68.46 1 .67-.2-.43-.14-.95.22-1.3zm3.48-1.44c.64 0 1.15.52 1.16 1.15 0 .64-.52 1.16-1.16 1.15-.64 0-1.15-.52-1.15-1.16s.52-1.15 1.15-1.15z"/><path d="m33.65 82.59c-.97-.57-2.08-.87-3.22-.87-1.7 0-3.3.66-4.5 1.86-.35.35-.65.74-.91 1.16.16.11.32.22.47.33a5.78 5.78 0 0 1 4.94-2.78c1.07 0 2.07.29 2.93.79.83.48 1.52 1.17 2.02 1.99.15-.11.31-.21.46-.32a6.467 6.467 0 0 0 -2.19-2.16z"/><path d="m59.95 17.13v22.8c0 33.69-29.52 48.14-29.52 48.14s-29.52-14.45-29.52-48.14v-22.8zm.91-.91h-60.86v23.71c0 7.81 1.58 15.25 4.69 22.11 2.49 5.48 5.96 10.6 10.31 15.22 7.41 7.85 14.72 11.48 15.02 11.63l.4.2.4-.2c.31-.15 7.61-3.78 15.02-11.63 4.35-4.62 7.82-9.74 10.31-15.22 3.11-6.86 4.69-14.3 4.69-22.11v-23.7z"/></g></svg>