<?xml version="1.0" encoding="UTF-8"?>
<svg id="Layer_1" xmlns="http://www.w3.org/2000/svg" version="1.1" viewBox="0 0 216.1 103">
  <!-- Generator: Adobe Illustrator 29.2.0, SVG Export Plug-In . SVG Version: 2.1.0 Build 108)  -->
  <defs>
    <style>
      .st0 {
        fill: #fff;
      }
    </style>
  </defs>
  <path class="st0" d="M110.4,88v-9.1c0-1,0-1.6,0-2.6h0c-.3.8-.7,1.4-1,2.1l-2.7,5.7h-1.5l-2.6-5.7c-.3-.7-.7-1.4-1-2.1h0c0,1,0,1.6,0,2.6v9.1h-1.7v-14h2.3l2.9,6.3c.3.6.6,1.3.8,1.9h0c.3-.6.6-1.3.9-1.9l2.9-6.3h2.3v14h-1.7Z"/>
  <path class="st0" d="M120.5,77.8c-.2-.8-.4-1.5-.6-2.3h-.2c-.2.8-.3,1.5-.6,2.3l-1.3,4.1h4l-1.3-4.1h0ZM123.7,88l-1.4-4.6h-5l-1.5,4.6h-1.7l4.6-14h2.4l4.6,14h-1.8Z"/>
  <path class="st0" d="M134.9,88l-4.9-10c-.3-.7-.8-1.5-1.1-2.4h0c0,.9,0,1.9,0,2.9v9.5h-1.6v-14h2.5l4.9,9.8c.3.7.8,1.6,1.1,2.4h0c0-1.1,0-2.2,0-3.1v-9.1h1.7v14h-2.5Z"/>
  <path class="st0" d="M145.3,88.3c-3.2,0-5.6-1.2-5.6-6.1v-2.3c0-4.9,2.4-6.1,5.6-6.1s2.7.2,3.2.3v1.4c-.9,0-2.2-.2-3.2-.2-2.6,0-3.9,1.1-3.9,4.5v2.3c0,3.4,1.3,4.5,3.9,4.5s2.4,0,3.2-.2v1.4c-.6,0-2,.3-3.2.3h0Z"/>
  <polygon class="st0" points="159.4 88 159.4 81.4 152.4 81.4 152.4 88 150.6 88 150.6 74.1 152.4 74.1 152.4 79.9 159.4 79.9 159.4 74.1 161.1 74.1 161.1 88 159.4 88 159.4 88"/>
  <polygon class="st0" points="163.9 88 163.9 74.1 172.2 74.1 172.2 75.6 165.6 75.6 165.6 80 171.8 80 171.8 81.6 165.6 81.6 165.6 86.5 172.2 86.5 172.2 88 163.9 88 163.9 88"/>
  <polygon class="st0" points="189.6 75.6 189.6 88 187.9 88 187.9 75.6 183.5 75.6 183.5 74.1 193.9 74.1 193.9 75.6 189.6 75.6 189.6 75.6"/>
  <polygon class="st0" points="195.5 88 195.5 74.1 203.8 74.1 203.8 75.6 197.2 75.6 197.2 80 203.4 80 203.4 81.6 197.2 81.6 197.2 86.5 203.8 86.5 203.8 88 195.5 88 195.5 88"/>
  <path class="st0" d="M209.4,75.6h-1.6v5.5h1.6c2.7,0,4-.5,4-2.7s-1.4-2.7-4.1-2.7h0ZM214.1,88l-3.3-5.5c-.4,0-.9,0-1.3,0h-1.6v5.4h-1.7v-14h3.3c3.2,0,5.8.7,5.8,4.3s-1,3.3-2.6,3.9l3.5,5.8h-2Z"/>
  <path class="st0" d="M180.1,80.6l-2.4-1.1c-1.5-.7-1.9-1.3-1.9-2.3s1-1.9,2.9-1.9,2.3,0,3.2.2v-1.4c-.8-.1-2-.3-3.3-.3-3.1,0-4.6,1.1-4.6,3.4s1,3,2.9,3.8l2.4,1.1c1.5.7,1.9,1.3,1.9,2.4,0,1.6-1,2.3-2.9,2.3s-2.9-.1-4-.2v1.4c.5.1,2.3.4,4,.4,3.1,0,4.6-1.4,4.6-3.8s-.9-3-2.9-3.9h0Z"/>
  <path class="st0" d="M107.4,67.7c-2.4,0-4.9-.5-7.1-1.7-.2,0-.3-.2-.3-.4v-3.1c0-.2,0-.5.3-.4,3,1.3,4,1.5,6,1.6,2.8.1,5.8-.6,5.8-3.5,0-5.7-12.2-4.3-12.2-12.9s5.6-7,10.4-7,5.1.8,6.3,1.3c.2,0,.2.2.2.3h0c0,0-.4,3.1-.4,3.1,0,.2-.1.2-.3.2s0,0,0,0c-2-.7-3.4-1-4.9-1.1-2.7-.1-5.4.4-5.4,2.9,0,4.5,12.2,3.9,12.2,12.2s-4.9,8.4-10.6,8.4h0Z"/>
  <path class="st0" d="M133,56.8c0-.2,0-.3-.3-.3h-2.6c-2.7,0-4.2.7-4.2,3.4s1.5,3.8,4.2,3.8h2.6c.3,0,.4-.1.4-.4v-6.5h0ZM138.7,66.2c0,.3,0,.5-.4.5-2.6.3-5.9.9-8.9.9-5.5,0-9.4-1.7-9.4-7.6s3.8-7.2,8.2-7.2,3.6.3,4.7.4c0-3.5-1.2-4.9-5.2-4.9s-3.1.2-4.6.3h-.1c-.2,0-.3-.1-.4-.3l-.3-2.8h0c0-.2.1-.3.3-.4,1.8-.2,4.8-.5,7.1-.5,5.5,0,9.1,2.2,9.1,8.4v13.2h0Z"/>
  <path class="st0" d="M147.4,67.2h-5.1c-.2,0-.3-.1-.3-.4v-29c0-.2,0-.3.3-.4l5.1-.4c.2,0,.4.1.4.4v29.4c0,.3,0,.4-.3.4h0Z"/>
  <path class="st0" d="M172.4,48.2c-3.3,0-4.5,2.2-4.5,8.1s1.3,7.7,4.5,7.7,4.5-2.2,4.5-7.7-1.2-8.1-4.5-8.1h0ZM172.4,67.6c-6.5,0-10.3-3.8-10.3-11.3s4.1-11.6,10.3-11.6,10.3,3.4,10.3,11.6-3.8,11.3-10.3,11.3h0Z"/>
  <path class="st0" d="M209.2,48.7c-.9,0-1.8-.2-2.8-.2-3.3,0-5,2.2-5,7.6s1.9,7.5,5.4,7.5,1.8-.1,2.5-.2c.2,0,.3-.2.3-.4v-13.9c0-.2-.1-.4-.3-.4h0ZM214.8,66.7c-2.5.4-5,.9-8.1.9-6.6,0-11.3-3-11.3-11.9s4.4-11.1,9.4-11.1,3.7.3,4.5.4h0c.1,0,.2-.1.2-.3v-6.8c0-.3.1-.4.4-.5l4.9-.4c.3,0,.4.3.4.5v28.6c0,.3-.1.6-.5.6h0Z"/>
  <path class="st0" d="M195.1,48.5c-1.5,0-2.6.2-4.2.3-.2,0-.3.2-.3.3v17.7c0,.3-.1.4-.3.4h-5.1c-.2,0-.3-.1-.3-.4v-20.5c0-.3.1-.4.3-.5,2.4-.3,7.2-.8,10-.9.2,0,.3.2.3.4v2.9c0,.2-.1.3-.4.3h0Z"/>
  <path class="st0" d="M163.1,33c-1.2,0-2.4-.3-3.5-.8,0,0-.1,0-.1-.2v-1.5c0,0,0-.2.2-.2,1.5.6,2,.8,3,.8,1.2,0,3.5-.1,3.5-1.7,0-3.2-6.6-2.1-6.6-6.4s2.8-3.5,5.1-3.5,2.3.3,2.9.5c0,0,.1,0,.1.2h0s-.2,1.5-.2,1.5c0,0,0,.1-.1.1s0,0,0,0c-1-.3-1.4-.4-2.2-.5-1.5-.1-3.4,0-3.5,1.5,0,2.5,6.6,1.9,6.6,6s-2.2,4.2-5.1,4.2h0Z"/>
  <path class="st0" d="M111.1,27.1c0,3.9-2.2,5.9-5.6,5.9s-5.6-2.1-5.6-5.9v-9.8c0-.2,0-.3.2-.3h1.8c.1,0,.2,0,.2.3v9.5c0,2.9,1.1,4.1,3.4,4.1s3.3-1.2,3.3-4.1v-9.6c0-.2,0-.3.2-.3h1.8c.1,0,.2,0,.2.2v9.8h0Z"/>
  <path class="st0" d="M123.5,32.9h-1.8c-.1,0-.2,0-.2-.2v-7.9c0-2.5-1.1-3.3-3.4-3.3s-1.7,0-2.4.2c-.2,0-.2,0-.2.2v10.8c0,.2,0,.2-.2.2h-1.8c-.1,0-.2,0-.2-.2v-12.3c0-.2,0-.2.2-.3,1.7-.3,3.5-.5,4.7-.5,3.4,0,5.5,1.1,5.5,5v8.1c0,.2,0,.2-.2.2h0Z"/>
  <path class="st0" d="M128,32.9h-1.8c-.1,0-.2,0-.2-.2v-12.8c0-.1,0-.2.2-.2h1.8c.2,0,.2,0,.2.2v12.8c0,.2,0,.2-.2.2h0ZM128.1,17.8c0,.2,0,.2-.2.2h-1.8c-.1,0-.2,0-.2-.3v-1.9c0-.2,0-.2.2-.2h1.8c.1,0,.2,0,.2.2v1.9h0Z"/>
  <path class="st0" d="M140,19.7h-1.8c-.1,0-.2,0-.2.2l-2.9,11c0,0,0,.1-.1.2,0,0-.1,0-.1-.1l-2.8-11c0-.1,0-.2-.2-.2h-2c-.1,0-.2,0-.2.1s0,0,0,0l3.8,12.8c0,.2,0,.2.2.2h2.4c.2,0,.3,0,.3-.3l3.7-12.8s0,0,0,0c0,0,0-.1-.2-.1h0Z"/>
  <path class="st0" d="M146,21.4c-2,0-3.4,1.3-3.4,3.8s0,.2.2.2h6.4c.1,0,.2,0,.2-.2,0-2.6-1.4-3.8-3.5-3.8h0ZM151.6,27.3h-8.7c-.1,0-.2,0-.2.2,0,2.9,1.9,3.6,4.4,3.6s2,0,3.1-.2c0,0,.2,0,.2.2h0s-.2,1.5-.2,1.5c0,.2-.1.2-.2.2-1,.2-2.3.3-3.6.3-3.6,0-6-1.6-6-6.8s2.6-6.7,5.7-6.7,5.6,2.4,5.6,7.5,0,.2-.2.2h0Z"/>
  <path class="st0" d="M172.1,32.9h-1.8c-.1,0-.2,0-.2-.2v-12.8c0-.1,0-.2.2-.2h1.8c.2,0,.2,0,.2.2v12.8c0,.2,0,.2-.2.2h0ZM172.3,17.8c0,.2,0,.2-.2.2h-1.8c-.1,0-.2,0-.2-.3v-1.9c0-.2,0-.2.2-.2h1.8c.1,0,.2,0,.2.2v1.9h0Z"/>
  <path class="st0" d="M181.1,32.6c0,.1-.1.2-.3.2-.9.1-1.4.2-2.1.2-2,0-2.9-1-2.9-3.3v-8.2c0-.2,0-.2-.2-.2h-1.4c-.1,0-.2,0-.2-.3v-1.1c0-.1,0-.2.2-.2h1.4c.1,0,.2,0,.2-.2v-3c0-.2,0-.2.2-.3l1.8-.2c.1,0,.2,0,.2.2v3.3c0,.2,0,.2.2.2h2.2c.2,0,.2,0,.2.2v1.1c0,.1,0,.2-.2.2h-2.2c-.1,0-.2,0-.2.3v7.6c0,1.3.2,1.9,1.7,1.9h1.3c.2,0,.2,0,.2.2l-.2,1.4h0Z"/>
  <path class="st0" d="M158.2,21.5c-.9,0-1.6,0-2.5.1-.2,0-.2,0-.2.2v10.8c0,.2,0,.2-.2.2h-1.8c-.1,0-.2,0-.2-.2v-12.3c0-.2,0-.3.2-.3,1.4-.2,3-.5,4.7-.5.1,0,.2,0,.2.2v1.5c0,.1,0,.2-.2.2h0Z"/>
  <path class="st0" d="M193,19.7h-1.8c-.1,0-.2,0-.2.2l-2.7,11c0,.1,0,.1-.1.2,0,0-.1,0-.2-.2l-3.1-11c0-.1-.1-.2-.2-.2h-1.9c-.1,0-.2,0-.2.1,0,0,0,0,0,0l3.6,12.2c.2.6.8.8,1,.8h0c.1,0,.2,0,.2.2,0,0,0,.2-.1.5-.5,1.2-1.8,2.9-2.3,3.5,0,0,0,0,0,.1,0,0,0,.2.2.2h2c.1,0,.2,0,.3-.2,1.7-1.9,2.8-4.9,3.4-7.2l2.6-10.1h0c0-.1,0-.2-.1-.2h0Z"/>
  <path class="st0" d="M161,36.3c-1,0-7.4.8-8.1,8.4,0,.3-.2.4-.4.4h-2.4c-.2,0-.3.1-.3.4v2.7c0,.3,0,.4.3.4h2.2c.3,0,.3.2.3.4v17.8c0,.3.1.5.4.5h5c.2,0,.3-.2.3-.5v-17.8c0-.3.1-.4.3-.4h2.8c.2,0,.3-.2.3-.4v-2.7c0-.2-.1-.4-.4-.4h-2.9c-.3,0-.3-.1-.3-.4.3-2.6,1.9-4.5,3.9-5.4,0,0,0,0,.1,0,0,0,0,0,0,0,0,0,0,0,0,0h0s0,0,0,0c0,0,0,0,0,0,0,0,0,0,0,0,0,0,0-.1,0-.3,0,0,0,0,0,0l-1.1-2.1c-.1-.2-.3-.3-.4-.3h0Z"/>
  <path class="st0" d="M202.4,21.3c-2.1,0-3.8,1.2-3.8,5s1.6,4.7,3.8,4.7,3.8-1.5,3.8-4.7-1.7-5-3.9-5h0ZM202.4,33.1c-3.1,0-6-2.2-6-6.7s2.6-6.9,6-6.9,6,2.1,6,6.9-2.8,6.7-6.1,6.7h0Z"/>
  <path class="st0" d="M214.7,15.2c-.6,0-3.8.9-4.1,4.2,0,.2-.1.2-.2.2h-1.4c-.1,0-.2,0-.2.2v1.1c0,.2,0,.2.2.2h1.3c.2,0,.2.1.2.3v11.1c0,.2,0,.3.2.3h1.8c.1,0,.2,0,.2-.3v-11.1c0-.2,0-.3.2-.3h2.1c.1,0,.2,0,.2-.2v-1.1c0-.1,0-.2-.2-.2h-2.1c-.2,0-.2,0-.2-.2.2-1.5,1.3-2.6,2.6-3.1,0,0,.1,0,0-.2l-.4-.9c0,0-.1,0-.2,0h0Z"/>
  <rect class="st0" x="80.1" width="2" height="103"/>
  <g>
    <path class="st0" d="M35,84.5c-.3-.4-.6-.7-1-1,.4.3.7.6,1,1Z"/>
    <path class="st0" d="M31.3,82.3c.2,0,.3,0,.5.1-.2,0-.3,0-.5-.1Z"/>
    <path class="st0" d="M35.1,84.6c.1.1.2.3.3.4,0-.2-.2-.3-.3-.4Z"/>
    <path class="st0" d="M33.3,83c-.4-.2-.8-.4-1.3-.5.4.1.9.3,1.3.5Z"/>
    <path class="st0" d="M31.1,82.3c-.2,0-.5,0-.7,0-1.4,0-2.7.5-3.7,1.3,1-.8,2.3-1.3,3.7-1.3.2,0,.5,0,.7,0Z"/>
    <path class="st0" d="M33.9,83.4c-.1-.1-.3-.2-.4-.3.1,0,.3.2.4.3Z"/>
    <path class="st0" d="M35.7,73.6c-.2-.1-.5-.2-.7-.2-.2,0-.5,0-.7,0-.5,0-.9.2-1.3.4-.8.3-1.7.6-2.5.6-.8,0-1.6-.3-2.5-.6-.4-.2-.9-.3-1.3-.4-.5,0-1,0-1.5.2-.4.2-.8.7-.9,1.1-.1.5,0,1,.2,1.4.5.8,1.2,1.4,2,1.8,0,0,0,0,0,0,0,0,0,0,0,0,.3.2.6.4.9.6h0s-.7-.6-1-1.2c-.4-.5-.7-1.9.5-1.6,1.3.3,1.5.8,3.7.8s2.4-.5,3.7-.8c1.3-.3.9,1.1.5,1.6-.4.5-1,1.2-1,1.2h0c.3-.2.6-.4.9-.6,0,0,0,0,0,0,.8-.4,1.5-1,2-1.8.5-.8.2-2.1-.8-2.6Z"/>
    <path class="st0" d="M30.4,82.2c.2,0,.4,0,.5,0,0-.5,0-1,0-1.6,0-.8-.2-1.6-.3-2.4-.2.8-.3,1.6-.4,2.4,0,.5,0,1,0,1.5,0,0,.2,0,.3,0Z"/>
    <path class="st0" d="M42.5,71.1h0c-1.2,2.1-2.5,4.1-3.8,6-.2.2-.4.4-.5.6-.3.5-.6.9-.8,1.3-.2.3-.4.6-.6.8-.8,1.1-1.5,2.1-2.3,3.1-.1,0-.2,0-.3-.1-.1,0-.2-.2-.3-.3.7-1.1,1.5-2.1,2.2-3.2,0,0,.1-.1.2-.2.5-.4,1-.9,1.6-1.6.3-.4.5-.8.6-1.3,1.3-1.7,2.7-3.4,4.1-5.1-1.6,1.1-3.2,2.2-4.9,3.3,0,.1,0,.3.1.4.1.8,0,1.6-.5,2.2-.8,1-1.4,1.5-2.1,2-.6.4-1.2.9-1.8,1.7-.5.7-.5,1.7,0,2.4.3.2.5.3.7.5.8.3,1.8.1,2.3-.6.6-.9.8-1.6,1.1-2.3.2-.7.5-1.5,1.2-2.6.5-.7,1.3-1.1,2.1-1.2.6-1.9,1.2-3.9,1.7-5.8h0s0,0,0,0Z"/>
    <path class="st0" d="M25,83.5c.5.3,1.2.3,1.7.1.2-.2.5-.4.7-.5.6-.7.6-1.6,0-2.4-.6-.9-1.2-1.3-1.8-1.7-.6-.4-1.3-.9-2.1-2-.5-.6-.7-1.4-.5-2.2,0-.1,0-.3.1-.4-1.6-1.1-3.2-2.2-4.9-3.3h0s0,0,0,0c1.4,1.6,2.8,3.3,4.1,5.1.1.4.3.9.6,1.3.6.8,1.1,1.3,1.6,1.6,0,0,.1.1.2.2.7,1.1,1.5,2.1,2.2,3.2,0,.1-.2.2-.3.3,0,0-.2.1-.3.1-.8-1-1.6-2.1-2.3-3.1-.2-.3-.4-.5-.6-.8-.2-.4-.4-.8-.8-1.3-.2-.2-.3-.4-.5-.6-1.3-2-2.6-4-3.8-6h0s0,0,0,0c.5,1.9,1.1,3.9,1.7,5.8.4,0,.8.2,1.2.4.4.2.7.5.9.8.8,1,1,1.8,1.2,2.6.2.7.4,1.4,1.1,2.3.2.2.4.4.6.5Z"/>
    <path class="st0" d="M56.7,31.3l-2.8,6.1c-4.3-2-8.9-3.4-13.6-4.3l1.2-6.7c-3.6-.6-7.3-1-10.9-1h0c-1.7,0-3.4,0-5.1.2l.5,6.7c-4.9.4-9.5,1.4-14,3l-2.2-6.4c-3,1.1-5.9,2.4-8.8,3.9v6.9c0,1.3,0,2.5.1,3.7l5-3c.4-.2.8-.3,1.2-.3.7,0,1.4.3,2,.8l-1.6.6c-.1,0-.2,0-.3,0-.2,0-.4,0-.5.1l-5.6,3.4c.1,1.2.3,2.4.5,3.6l6.9-4.2c.1,0,.2-.2.3-.3l1.6-.6c0,.1,0,.3,0,.4-.1.7-.5,1.3-1.1,1.7l-7.1,4.3c0,0-.2,0-.3.1,1.6,8.5,5.2,15.4,9.2,21,.6.2,1.2.4,1.8.5,0,0,0,0,0,0,0,0,0,0,0,0h0S3.1,52.5,3.1,52.5l16,14.4c-1-3.4-1.8-6.9-1.5-10.7,0-3.7,1-7.8-1.6-10.7,3.8,2.4,4,6.1,5.3,9.4,1,3.4,3.1,6.4,5.3,9.4,0,0,0,0,0,0,0,0,0,0,0,0h0s3.9-21.2,3.9-21.2l3.9,21.2c1.3-3.3,2.8-6.5,5.3-9.4,2.3-3,5.6-5.6,5.3-9.4,1.6,4.3-.5,7.3-1.5,10.7-1.3,3.3-1.5,7-1.6,10.7,0,0,0,0,0,0,0,0,0,0,0,0h0s16-14.4,16-14.4l-9.8,19.2h0s0,0,0,0c0,0,0,0,0,0,.8-.5,1.5-.9,2.3-1.3,3.8-5.4,7.1-12,8.6-20-.2,0-.3-.1-.5-.2l-7.1-4.3c-.6-.4-1-1-1.1-1.7,0-.1,0-.3,0-.4l1.6.6c0,.1.2.2.3.3l7.1,4.3s0,0,0,0c.2-1.2.3-2.4.5-3.6l-5.9-3.6c-.1,0-.3-.1-.5-.1s-.2,0-.3,0l-1.6-.6c.6-.5,1.3-.8,2-.8s.9.1,1.2.3l5.3,3.2c0-1.3.2-2.6.2-3.9v-6.9c-1.1-.6-2.2-1.1-3.3-1.7ZM35.4,35.3c.1,0,.2,0,.4,0l8.2,1.3c.7.1,1.3.5,1.7,1.2.3.4.4.9.4,1.4l-1.6-.6c-.2-.3-.4-.5-.7-.5l-8.2-1.3c-.3,0-.5,0-.8.2h-1.8c.5-1,1.4-1.6,2.4-1.6ZM14.9,37.8c.4-.6,1-1,1.7-1.2l8.2-1.3c.1,0,.2,0,.4,0,1,0,1.9.6,2.4,1.6h-1.8c-.2-.2-.5-.2-.8-.2l-8.2,1.3c-.3,0-.5.2-.7.5l-1.6.6c0-.5.2-.9.4-1.4ZM8.1,44.2c0,0-.2,0-.2,0-.3,0-.5-.3-.7-.8-.2-.6-.3-1,.2-1.2l9.6-3.6c0,0,.2,0,.2,0,.3,0,.5.3.7.8.2.6.3,1-.2,1.2l-9.6,3.6ZM25.8,41.3l-8.2,1.3c-.1,0-.2,0-.4,0h0c-.7,0-1.3-.3-1.8-.8l1.6-.6c0,0,.2,0,.3,0s0,0,.1,0l8.2-1.3c.2,0,.3-.1.4-.2h1.7c-.4.8-1,1.5-1.9,1.6ZM25.2,39.3c-.6,0-.6-.4-.6-1s0-1,.6-1h10.2c.6,0,.6.4.6,1s0,1-.6,1h-10.2ZM43,42.6l-8.2-1.3c-.7-.1-1.3-.5-1.7-1.2,0-.1-.2-.3-.2-.4h1.7c.1.1.3.2.5.2l8.2,1.3s0,0,.1,0c0,0,.2,0,.3,0l1.6.6c-.6.6-1.4.9-2.2.8ZM53.2,42.2c.5.2.4.6.2,1.2-.2.5-.3.8-.7.8s-.2,0-.2,0l-9.6-3.6c-.5-.2-.4-.6-.2-1.2.2-.5.3-.8.7-.8s.2,0,.2,0l9.6,3.6Z"/>
    <path class="st0" d="M44.1,77.7c-.2-.3-.5-.5-.8-.7-1.7-1.2-4-.8-5.2.8-.8,1.1-1.1,2-1.3,2.8-.2.7-.4,1.3-1,2.1-.4.5-1.1.7-1.7.3-.5-.4-.7-1.1-.3-1.7.6-.8,1.1-1.1,1.7-1.5.7-.5,1.4-1,2.2-2.1.6-.8.8-1.8.7-2.8-.2-1-.7-1.8-1.5-2.4,0,0-.2-.1-.3-.2-.2-.1-.4-.2-.7-.3-1.8-.6-3.7-.9-5.6-.9-1.9,0-3.8.3-5.6.9-.3.1-.7.3-1,.5-.8.6-1.3,1.4-1.5,2.4-.2,1,0,2,.7,2.8.8,1.1,1.6,1.7,2.2,2.1.6.4,1.1.8,1.7,1.5.4.5.3,1.3-.3,1.7-.5.4-1.3.3-1.7-.3-.6-.8-.7-1.4-1-2.1-.2-.8-.5-1.6-1.3-2.8-.3-.4-.7-.8-1.1-1-1.3-.7-2.9-.7-4,.2-.3.2-.5.5-.8.7,0,0,0,0,0,0,.2.2.3.3.5.5,0,0,0,0,0-.1.2-.2.4-.4.6-.6,1-.7,2.2-.8,3.3-.2.4.2.7.5.9.8.8,1,1,1.8,1.2,2.6.2.7.4,1.4,1.1,2.3.2.2.4.4.6.5.5.3,1.2.3,1.7.1.2-.2.5-.4.7-.5.6-.7.6-1.6,0-2.4-.6-.9-1.2-1.3-1.8-1.7-.6-.4-1.3-.9-2.1-2-.5-.6-.7-1.4-.5-2.2.1-.8.5-1.5,1.2-1.9.2-.2.5-.3.8-.4,1.7-.6,3.5-.9,5.4-.9,1.8,0,3.6.3,5.4.9.3,0,.5.2.8.4.6.5,1.1,1.2,1.2,1.9.1.8,0,1.6-.5,2.2-.8,1-1.4,1.5-2.1,2-.6.4-1.2.9-1.8,1.7-.5.7-.5,1.7,0,2.4.3.2.5.3.7.5.8.3,1.8.1,2.3-.6.6-.9.8-1.6,1.1-2.3.2-.7.5-1.5,1.2-2.6,1-1.3,2.8-1.6,4.2-.7.2.2.4.4.6.6,0,0,0,0,0,.1.2-.2.3-.3.5-.5,0,0,0,0,0,0Z"/>
    <path class="st0" d="M21.6,80.8c.4.5.8,1.4.8,1.4-.1-.4-.2-.7-.3-1h0s0,0,0,0c-.2-.9-.5-1.7-1.1-2.5-.3-.4-.8-.6-1.3-.6-.5,0-1,.2-1.4.5-.1.1-.2.2-.3.4.6.6,1.3,1.2,1.9,1.7.2-1.2,1.3-.4,1.7,0Z"/>
    <path class="st0" d="M42.5,78.6c-.4-.3-.9-.5-1.4-.5-.5,0-1,.2-1.3.6-.6.7-.9,1.6-1.1,2.5,0,0,0,0,0,0,0,0,0,0,0,0,0,.3-.2.6-.3,1,0,0,.4-.8.8-1.4.4-.5,1.5-1.3,1.7,0,.6-.5,1.3-1.1,1.9-1.7,0-.1-.2-.3-.3-.4Z"/>
    <path class="st0" d="M26.9,84.6c.5-.5,1.2-.5,1.6,0,.4.4.4,1.2,0,1.6-.2.2-.5.3-.8.3.7.4,1.2.7,1.7,1,.2-.4.6-.6,1-.6.4,0,.8.3,1,.6.4-.2,1-.6,1.7-1-.3,0-.6-.1-.8-.3-.5-.5-.5-1.2,0-1.6.5-.5,1.2-.5,1.6,0,.4.4.4.9.2,1.3.3-.2.7-.4,1-.7-.5-.8-1.1-1.4-1.9-1.9-.8-.5-1.8-.8-2.8-.8-1.5,0-2.9.6-3.9,1.6-.3.3-.6.7-.8,1.1.3.2.7.5,1,.7-.2-.4-.1-.9.2-1.3ZM30.4,83.1c.6,0,1.2.5,1.2,1.2,0,.6-.5,1.2-1.2,1.2-.6,0-1.2-.5-1.2-1.2,0-.6.5-1.2,1.2-1.2Z"/>
    <path class="st0" d="M33.6,82.5c-1-.6-2.1-.9-3.2-.9-1.7,0-3.3.7-4.5,1.9-.4.4-.7.7-.9,1.2.2.1.3.2.5.3,1-1.7,2.8-2.8,4.9-2.8,1.1,0,2.1.3,2.9.8.8.5,1.5,1.2,2,2,.2-.1.3-.2.5-.3-.5-.9-1.3-1.6-2.2-2.2Z"/>
    <path class="st0" d="M60,17.1v22.8c0,33.7-29.5,48.1-29.5,48.1,0,0-29.5-14.5-29.5-48.1v-22.8h59M60.9,16.2H0v23.7c0,7.8,1.6,15.3,4.7,22.1,2.5,5.5,6,10.6,10.3,15.2,7.4,7.9,14.7,11.5,15,11.6l.4.2.4-.2c.3-.2,7.6-3.8,15-11.6,4.4-4.6,7.8-9.7,10.3-15.2,3.1-6.9,4.7-14.3,4.7-22.1v-23.7Z"/>
  </g>
</svg>